<svg xmlns="http://www.w3.org/2000/svg" width="108" height="108" viewBox="0 0 108 108">
  <g id="Group_197" data-name="Group 197" transform="translate(-311 -311)">
    <rect id="Rectangle_597" data-name="Rectangle 597" width="108" height="108" rx="20" transform="translate(311 311)" fill="#8c3493"/>
    <g id="surface1" transform="translate(314.969 331.507)">
      <path id="Path_1717" data-name="Path 1717" d="M0,66.986H100.062V0H0Zm0,0" fill="#8c3493" fill-rule="evenodd"/>
      <path id="Path_1718" data-name="Path 1718" d="M196.225,22.871,184.343,34.753l.833,6.672,2.19-4.587,6.774,8.652L203.626,16.3,172.043,29.438l8.548,4.482,15.634-11.049" transform="translate(-126.501 -11.989)" fill="#fff" fill-rule="evenodd"/>
      <path id="Path_1719" data-name="Path 1719" d="M164.137,132.367h-6.984c-4.325.261-5.733-6.878-.417-7.817h7.4Zm4.583-12.508H156.212c-9.538,1.46-10.527,15.322-.1,17.2H168.72V124.549a3.945,3.945,0,0,1,1.98,7.3c.626.73,3.128,3.44,3.128,3.44,6.566-5.664,2.814-14.975-5.108-15.427" transform="translate(-109.314 -88.131)" fill="#fff"/>
      <path id="Path_1720" data-name="Path 1720" d="M280.4,103.557h-4.586l-1.981,4.587h5.837a.886.886,0,1,1,0,1.771h-10.11v-7.922h15.53V97.3H282.8c-.678-9.693-12.274-9.979-15.322-4.689.6.494,3.439,3.023,3.439,3.023a3.965,3.965,0,0,1,7.3,1.667H264.973v17.2h14.9a5.34,5.34,0,0,0,5.316-4.692,5.656,5.656,0,0,0-4.795-6.254" transform="translate(-194.831 -65.575)" fill="#fff" fill-rule="evenodd"/>
      <path id="Path_1721" data-name="Path 1721" d="M130.792,119.859h-6.045c-1.928,2.345-5.264,11.831,1.355,18.971,0,0,2.866-2.449,3.439-2.918-2.032-1.981-5.419-10.059,1.251-16.053" transform="translate(-89.836 -88.131)" fill="#fff" fill-rule="evenodd"/>
      <path id="Path_1722" data-name="Path 1722" d="M75.539,181.622a3.789,3.789,0,1,1-3.79-3.79,3.789,3.789,0,0,1,3.79,3.79" transform="translate(-49.971 -130.757)" fill="#fff" fill-rule="evenodd"/>
      <path id="Path_1723" data-name="Path 1723" d="M53.1,132.367H46.111c-4.325.261-5.733-6.878-.417-7.817h7.4Zm-7.922-12.508c-9.537,1.46-10.528,15.322-.1,17.2h.069a4.724,4.724,0,0,1,8.619,0h3.924v-17.2H45.174" transform="translate(-27.669 -88.131)" fill="#fff" fill-rule="evenodd"/>
      <path id="Path_1724" data-name="Path 1724" d="M70.99,90.952a.4.4,0,0,1-.394.394H68.6v-.832H70.6a.4.4,0,0,1,.394.394Zm.2,2.118a2.158,2.158,0,0,0-.21-4.117H66.914v5.993h1.667V93.07l1.877,1.877h2.607L71.189,93.07" transform="translate(-49.201 -65.406)" fill="#fff" fill-rule="evenodd"/>
      <path id="Path_1725" data-name="Path 1725" d="M92.678,92.966a1.335,1.335,0,1,1,1.335-1.335A1.335,1.335,0,0,1,92.678,92.966Zm0-4.372a3.037,3.037,0,1,0,3.037,3.037,3.037,3.037,0,0,0-3.037-3.037" transform="translate(-65.911 -65.142)" fill="#fff" fill-rule="evenodd"/>
      <path id="Path_1726" data-name="Path 1726" d="M158.195,90.222h2.73V88.461h-2.31a3.056,3.056,0,1,0,0,6.093h2.31V92.792h-2.73a1.249,1.249,0,0,1-.986-.486h3.716v-1.6h-3.716a1.25,1.25,0,0,1,.986-.486" transform="translate(-114.199 -65.044)" fill="#fff" fill-rule="evenodd"/>
      <path id="Path_1727" data-name="Path 1727" d="M116.784,92.792a1.254,1.254,0,0,1-1.25-1.25v-.07a1.254,1.254,0,0,1,1.25-1.25h2.594V88.461h-2.327a3.056,3.056,0,1,0,0,6.093h2.327V92.792h-2.594" transform="translate(-83.639 -65.044)" fill="#fff" fill-rule="evenodd"/>
      <path id="Path_1728" data-name="Path 1728" d="M184.121,88.9h-5.883v1.576h2.154v4.308h1.575V90.474h2.154V88.9" transform="translate(-131.056 -65.366)" fill="#fff" fill-rule="evenodd"/>
      <path id="Path_1729" data-name="Path 1729" d="M140.2,91.818l2.9-2.919h-2.343l-1.629,1.642V88.9h-1.575v5.884h1.575V93.1l1.673,1.687h2.344L140.2,91.818" transform="translate(-101.139 -65.366)" fill="#fff"/>
      <path id="Path_1730" data-name="Path 1730" d="M233.126,194.6a1.121,1.121,0,0,0-.687.49,1.34,1.34,0,0,0-.284.8,1.144,1.144,0,0,0,.1.47c.084.193.2.288.343.288a.556.556,0,0,0,.285-.119l.163.438a.839.839,0,0,1-.431.133.865.865,0,0,1-.547-.211,1.148,1.148,0,0,1-.29-.469,1.441,1.441,0,0,1-.068-.51v-.159a1.968,1.968,0,0,1,.568-1.2,4.891,4.891,0,0,1,.406-.391h.595v.433c-.056.007-.107.012-.153.016" transform="translate(-170.374 -142.757)" fill="#fff"/>
      <path id="Path_1731" data-name="Path 1731" d="M238.6,194.586H237.43a1.015,1.015,0,0,1,.515.837,1.83,1.83,0,0,1,.65.491Zm.5,0v2.476h-.5v-.32a.707.707,0,0,0-.251-.423,2.649,2.649,0,0,0-.4-.34.865.865,0,0,0-.5-.159.422.422,0,0,0-.4.238.128.128,0,0,0-.016.067.229.229,0,0,0,.1.179.3.3,0,0,0,.2.08,1.546,1.546,0,0,0,.377-.115l.146.45a1.286,1.286,0,0,1-.552.169.8.8,0,0,1-.453-.138.814.814,0,0,1-.3-.365.606.606,0,0,1-.043-.241.717.717,0,0,1,.349-.642.931.931,0,0,1,.517-.159h.048a.529.529,0,0,0-.138-.291.357.357,0,0,0-.258-.16h-.548v-.3h-.22v-.434h3.187v.434h-.338" transform="translate(-173.705 -142.757)" fill="#fff"/>
      <path id="Path_1732" data-name="Path 1732" d="M248.255,194.586v2.476h-.5v-2.476H247.4v-.434h1.19v.434h-.33" transform="translate(-181.906 -142.757)" fill="#fff"/>
      <path id="Path_1733" data-name="Path 1733" d="M253.494,195.122c-.092.031-.19.066-.3.108-.155.068-.437.192-.847.37l-.094.041a4.146,4.146,0,0,1,1.121.607l.117.087Zm-.029-.536h-2.23v-.434h3.088v.434h-.342v2.476h-.437q-.064-.191-.643-.592a3,3,0,0,0-.652-.317,2.146,2.146,0,0,0-.706-.164l-.131-.493a5.441,5.441,0,0,1,.956-.478q.332-.144,1.1-.431" transform="translate(-184.729 -142.757)" fill="#fff"/>
      <path id="Path_1734" data-name="Path 1734" d="M262.859,194.586v2.476h-.494v-2.476H262v-.434h1.189v.434h-.33" transform="translate(-192.645 -142.757)" fill="#fff"/>
      <path id="Path_1735" data-name="Path 1735" d="M267.561,194.848a6.347,6.347,0,0,0-.642-.509,2.6,2.6,0,0,0-.542-.25,1.9,1.9,0,0,0-.353-.109l.006-.579c.041,0,.105,0,.191.007s.15.008.192.008a1.451,1.451,0,0,0,.547-.087q.4-.167.4-.395a.334.334,0,0,0-.152-.279c-.1-.058-.2-.114-.3-.168a.194.194,0,0,0-.084-.021.5.5,0,0,0-.2.045c-.088.042-.127.087-.121.138.018.128.153.182.406.162l-.268.411a.531.531,0,0,1-.332-.1.6.6,0,0,1-.3-.5.509.509,0,0,1,.31-.463,1.189,1.189,0,0,1,.579-.138.612.612,0,0,1,.245.046c.068.031.137.065.208.1a.831.831,0,0,1,.5.78.72.72,0,0,1-.31.606,1.628,1.628,0,0,1-.679.251,4.224,4.224,0,0,1,.379.21,7.114,7.114,0,0,1,.679.57Zm-1.721-2.892v-.434H267.3a.189.189,0,0,0,.006-.036.434.434,0,0,0-.322-.449.389.389,0,0,0-.1-.01.778.778,0,0,0-.195.031c-.1.028-.169.044-.189.048a.611.611,0,0,0-.22.078,1.606,1.606,0,0,1-.279.152l-.157-.367a2.656,2.656,0,0,1,.747-.336,1.3,1.3,0,0,1,.368-.057.846.846,0,0,1,.416.134.9.9,0,0,1,.411.813h.283v.434H265.84" transform="translate(-195.468 -140.126)" fill="#fff"/>
      <path id="Path_1736" data-name="Path 1736" d="M276.667,194.586v2.476h-.494v-.982a.424.424,0,0,0-.11-.264.31.31,0,0,0-.236-.136.287.287,0,0,0-.221.143.535.535,0,0,0-.1.327h-.536a.6.6,0,0,0-.105-.355.3.3,0,0,0-.244-.15.357.357,0,0,0-.222.083.277.277,0,0,0-.116.191l-.015.128v.051q0,.382.466.381a1.713,1.713,0,0,0,.253-.031l-.174.5c-.1.012-.163.017-.184.017a.957.957,0,0,1-.642-.257.7.7,0,0,1-.189-.3.991.991,0,0,1-.068-.351.853.853,0,0,1,.9-.9.749.749,0,0,1,.627.356.76.76,0,0,1,.589-.356.486.486,0,0,1,.338.158v-.731H273.5v-.434h3.451v.434h-.28" transform="translate(-201.097 -142.757)" fill="#fff"/>
      <path id="Path_1737" data-name="Path 1737" d="M293.332,195.122c-.091.031-.19.066-.3.108-.155.068-.437.192-.847.37l-.1.041a4.136,4.136,0,0,1,1.122.607l.116.087Zm-.028-.536h-2.23v-.434h3.088v.434h-.342v2.476h-.437q-.064-.191-.643-.592a3.015,3.015,0,0,0-.653-.317,2.135,2.135,0,0,0-.705-.164l-.132-.493a5.527,5.527,0,0,1,.958-.478q.332-.144,1.1-.431" transform="translate(-214.022 -142.757)" fill="#fff"/>
      <path id="Path_1738" data-name="Path 1738" d="M302.98,194.586a1,1,0,0,0-.235.536,4.939,4.939,0,0,0,.24.784,1.779,1.779,0,0,1,.125.573.618.618,0,0,1-.484.6,2.266,2.266,0,0,1-.525.093l.066-.428c.292-.062.439-.164.439-.309a1.771,1.771,0,0,0-.183-.619,1.762,1.762,0,0,1-.182-.613,1.307,1.307,0,0,1,.211-.618h-.515v-.434h1.38v.434h-.338" transform="translate(-222.01 -142.757)" fill="#fff"/>
      <path id="Path_1739" data-name="Path 1739" d="M307.488,194.586v2.476h-.5v-2.476h-.364v-.434h1.189v.434h-.33" transform="translate(-225.46 -142.757)" fill="#fff"/>
      <path id="Path_1740" data-name="Path 1740" d="M312.161,194.967a.205.205,0,0,0-.149-.041q-.281.046-.28.277a.316.316,0,0,0,.093.219.281.281,0,0,0,.209.1l.068-.01a.259.259,0,0,0,.212-.258A.333.333,0,0,0,312.161,194.967Zm.437,2.6a8.043,8.043,0,0,0-1.278-.952l.006-.683a7.957,7.957,0,0,1,1.693,1.477v.509Zm-.541-1.6a.741.741,0,0,1-.558-.219.783.783,0,0,1-.21-.564.716.716,0,0,1,.216-.533.729.729,0,0,1,.537-.214.655.655,0,0,1,.631.438.887.887,0,0,1,.085.366.751.751,0,0,1-.182.53.671.671,0,0,1-.518.2" transform="translate(-228.886 -142.972)" fill="#fff"/>
      <path id="Path_1741" data-name="Path 1741" d="M320.366,190.289a2.9,2.9,0,0,0-1.416-.544,1.109,1.109,0,0,0-.954.412.765.765,0,0,0-.116.423h.348v.434h-.348v2.476h-.5v-2.476h-.33v-.434h.33a1.205,1.205,0,0,1,.347-.856,1.53,1.53,0,0,1,.9-.4c.038,0,.113-.011.221-.026h.1a2.237,2.237,0,0,1,.9.2q.242.113.794.452l-.278.349" transform="translate(-233.12 -139.184)" fill="#fff"/>
      <path id="Path_1742" data-name="Path 1742" d="M321.821,195.158c-.081.061-.2.144-.369.246a.5.5,0,0,0-.144.105c-.055.054-.107.1-.156.147.053.048.136.115.253.2.109.123.247.276.416.457Zm.5-.572v.016a1.54,1.54,0,0,1,.647.2.783.783,0,0,1,.474.7.672.672,0,0,1-.158.447.749.749,0,0,1-.415.247.977.977,0,0,1-.435.019v-.469a1.269,1.269,0,0,0,.158.011c.248,0,.372-.09.372-.268,0-.213-.215-.346-.643-.4v1.976h-.436a1.462,1.462,0,0,0-.211-.319c-.025-.028-.088-.11-.19-.247a.994.994,0,0,0-.173-.17.927.927,0,0,1-.174-.169.269.269,0,0,0-.117-.067,1.652,1.652,0,0,0-.521-.114l-.131-.492c.11-.079.355-.227.737-.442.028-.021.145-.089.351-.206.073-.044.2-.117.37-.216v-.035h-1.563v-.434h3.4v.434h-1.34" transform="translate(-235.481 -142.757)" fill="#fff"/>
      <path id="Path_1743" data-name="Path 1743" d="M333.856,194.967a.2.2,0,0,0-.148-.041q-.281.046-.28.277a.316.316,0,0,0,.093.219.28.28,0,0,0,.209.1l.068-.01a.259.259,0,0,0,.212-.258A.334.334,0,0,0,333.856,194.967Zm.439,2.6a8.09,8.09,0,0,0-1.278-.952l.005-.683a7.963,7.963,0,0,1,1.694,1.477v.509Zm-.541-1.6a.742.742,0,0,1-.559-.219.779.779,0,0,1-.211-.564.72.72,0,0,1,.216-.533.731.731,0,0,1,.537-.214.655.655,0,0,1,.632.438.885.885,0,0,1,.084.366.75.75,0,0,1-.181.53.673.673,0,0,1-.518.2" transform="translate(-244.838 -142.972)" fill="#fff"/>
      <path id="Path_1744" data-name="Path 1744" d="M129.141,205.047l.922.311.369-.311-.923-.323-.369.323" transform="translate(-94.955 -150.53)" fill="#fff"/>
      <path id="Path_1745" data-name="Path 1745" d="M109.384,195.888c.093.027.216-.123.308-.246v.574c0,.219-.175.411-.308.411h-1.29v-.738Zm.8-1.166v-.558h-7.244v.558h1.217v1.247H105.2s.3-.1.369-.246v.492a.4.4,0,0,1-.369.411h-1.536c-.093,0-.185-.041-.185-.411v-1.162h-.541v1.491c0,.123.078.557.466.557h2.084a.659.659,0,0,0,.573-.619v-1.429h-.491c-.052.219-.021.369-.246.424h-.615v-.755H106.5v2.38h.614v-2.38h.431v2.38h2.029a.631.631,0,0,0,.615-.639v-1.41h-.492c0,.137-.021.342-.246.342h-1.353v-.673h2.091" transform="translate(-75.691 -142.766)" fill="#fff"/>
      <path id="Path_1746" data-name="Path 1746" d="M132.859,199.472h1.23v-.656h-1.23Zm0,0" transform="translate(-97.689 -146.186)" fill="#fff"/>
      <path id="Path_1747" data-name="Path 1747" d="M142.1,196.708h-1.23c-.184-.027-.307-.245-.307-.492v-.656H142.1Zm-2.026-2.544v.558H142.1v.331H140.07v1.327c.043.432.265.722.686.722h1.832v-2.38h.43v2.38h.553v-2.938h-3.5" transform="translate(-102.991 -142.766)" fill="#fff"/>
      <path id="Path_1748" data-name="Path 1748" d="M163.332,194.722h2.509v.331H165.1a.247.247,0,0,1-.492,0h-1.279v1.41c0,.136.021.583.4.639h1.006v-.476h-.676a.31.31,0,0,1-.246-.328v-.739h.676v.41h.615v-.328c-.041-.151.645-.137.676,0v1.46h.553v-2.38h.369v2.38h.553v-2.938h-3.923v.558" transform="translate(-120.096 -142.766)" fill="#fff"/>
      <path id="Path_1749" data-name="Path 1749" d="M156.007,195.608c-.236,0-.427-.087-.427-.194s.191-.192.427-.192.427.087.427.192S156.243,195.608,156.007,195.608Zm.4-.823H155.1v.771a.636.636,0,0,0,.631.574h1.046v-.951a.459.459,0,0,0-.369-.394" transform="translate(-114.041 -143.222)" fill="#fff"/>
      <path id="Path_1750" data-name="Path 1750" d="M155.426,200.961v.484l1.58.656v-.513l-1.58-.627" transform="translate(-114.282 -147.764)" fill="#fff"/>
      <path id="Path_1751" data-name="Path 1751" d="M206.053,195.608c-.236,0-.427-.087-.427-.194s.191-.192.427-.192.427.087.427.192S206.289,195.608,206.053,195.608Zm.4-.823h-1.306v.771a.634.634,0,0,0,.63.574h1.046v-.951a.459.459,0,0,0-.369-.394" transform="translate(-150.84 -143.222)" fill="#fff"/>
      <path id="Path_1752" data-name="Path 1752" d="M205.469,200.961v.484l1.58.656v-.513l-1.58-.627" transform="translate(-151.078 -147.764)" fill="#fff"/>
      <path id="Path_1753" data-name="Path 1753" d="M215.268,196.708h-1.23c-.185-.027-.307-.245-.307-.492v-.656h1.527l.008.083h0Zm.492-1.654v-.331h1.019v-.558h-3.537v.558h2.026v.331h-2.026v1.327c.043.432.265.722.685.722h1.833v-1.46h.491c.082,0,.1-.041.123.082v.246c-.031.124-.041.206-.123.246h-.181v.492h.365a.46.46,0,0,0,.369-.328v-1.327H215.76" transform="translate(-156.794 -142.766)" fill="#fff"/>
      <path id="Path_1754" data-name="Path 1754" d="M186.433,196.708H185.2c-.184-.027-.307-.245-.307-.492v-.656h1.538Zm-2.027-2.544v.558h2.027v.331h-2.027v1.327c.044.432.266.722.686.722h1.832v-2.38h.641l-.234.466v.329h.431c.228.026.307.178.307.574,0,.274-.063.472-.275.493h-.4v.492h.431c.123,0,.687.055.738-.492.061-1.109.112-1.4-.677-1.478l.116-.385h.867v2.38h.553v-2.938h-5.014" transform="translate(-135.591 -142.766)" fill="#fff"/>
    </g>
  </g>
</svg>
