<svg id="Component_14_4" data-name="Component 14 – 4" xmlns="http://www.w3.org/2000/svg" width="32" height="32" viewBox="0 0 32 32">
  <circle id="Ellipse_10" data-name="Ellipse 10" cx="16" cy="16" r="16" fill="#d6001b" opacity="0.1"/>
  <g id="Group_70" data-name="Group 70" transform="translate(7.989 7.989)">
    <rect id="Rectangle_181" data-name="Rectangle 181" width="16" height="16" transform="translate(0.011 0.011)" fill="none"/>
    <g id="logout" transform="translate(0 0.181)">
      <path id="Path_1731" data-name="Path 1731" d="M9.874,8.561a.658.658,0,0,0-.658.658v2.633a.659.659,0,0,1-.658.658H6.582V2.637a1.327,1.327,0,0,0-.9-1.251L5.491,1.32H8.557a.659.659,0,0,1,.658.658V3.953a.658.658,0,0,0,1.316,0V1.979A1.977,1.977,0,0,0,8.557,0H1.481a.517.517,0,0,0-.07.014C1.379.016,1.349,0,1.317,0A1.318,1.318,0,0,0,0,1.32V13.169A1.327,1.327,0,0,0,.9,14.42l3.961,1.32a1.363,1.363,0,0,0,.408.061,1.318,1.318,0,0,0,1.316-1.317v-.658H8.557a1.977,1.977,0,0,0,1.975-1.975V9.219A.658.658,0,0,0,9.874,8.561Zm0,0" transform="translate(0 -0.004)" fill="#d6001b"/>
      <path id="Path_1732" data-name="Path 1732" d="M284.38,109.491l-2.633-2.633a.658.658,0,0,0-1.124.465V109.3H277.99a.658.658,0,1,0,0,1.316h2.633v1.975a.658.658,0,0,0,1.124.465l2.633-2.633A.657.657,0,0,0,284.38,109.491Zm0,0" transform="translate(-268.775 -103.374)" fill="#d6001b"/>
    </g>
  </g>
</svg>
