<svg id="Component_14_2" data-name="Component 14 – 2" xmlns="http://www.w3.org/2000/svg" width="32" height="32" viewBox="0 0 32 32">
  <circle id="Ellipse_10" data-name="Ellipse 10" cx="16" cy="16" r="16" fill="#d6001b" opacity="0.1"/>
  <g id="Group_70" data-name="Group 70" transform="translate(7.989 7.989)">
    <rect id="Rectangle_181" data-name="Rectangle 181" width="16" height="16" transform="translate(0.011 0.011)" fill="none"/>
    <g id="XMLID_2_" transform="translate(0.545)">
      <g id="Group_197" data-name="Group 197">
        <g id="Group_196" data-name="Group 196" transform="translate(0)">
          <path id="Path_1729" data-name="Path 1729" d="M36.895,280.9a3.475,3.475,0,0,1-2.813,1.435h-1.62a1.3,1.3,0,0,1-1.217-.853,4.109,4.109,0,0,1-.655-.259,4.409,4.409,0,0,1-1.222-.9,5.22,5.22,0,0,0-4.093,5.1v.326a.812.812,0,0,0,.812.812h12.6a.812.812,0,0,0,.812-.812v-.326A5.216,5.216,0,0,0,36.895,280.9Z" transform="translate(-25.274 -270.579)" fill="#d6001b"/>
          <path id="Path_1730" data-name="Path 1730" d="M92.533,8.071a.924.924,0,0,0,.81-.479l.013.034,0,.01a3.608,3.608,0,0,0,2.035,2.142,1.293,1.293,0,0,1,1.1-.606H98.11a.907.907,0,0,0,.444-.119,1.831,1.831,0,0,0,.524-.6,4.673,4.673,0,0,0,.405-.857.929.929,0,0,0,.256.294v.4A1.63,1.63,0,0,1,98.11,9.912H96.49a.555.555,0,1,0,0,1.109h1.62a2.741,2.741,0,0,0,2.738-2.738v-.4a.923.923,0,0,0,.37-.74V4.832a.923.923,0,0,0-.384-.75,4.435,4.435,0,0,0-8.842,0,.923.923,0,0,0-.384.75V7.146A.925.925,0,0,0,92.533,8.071Zm3.88-6.961a3.33,3.33,0,0,1,3.309,3,.928.928,0,0,0-.26.321,3.165,3.165,0,0,0-6.1-.005l0,.005a.928.928,0,0,0-.26-.321A3.33,3.33,0,0,1,96.413,1.109Z" transform="translate(-89.302)" fill="#d6001b"/>
        </g>
      </g>
    </g>
  </g>
</svg>
